<?xml version="1.0" encoding="UTF-8"?>
<svg width="24px" height="24px" viewBox="0 0 24 24" version="1.1" xmlns="http://www.w3.org/2000/svg" xmlns:xlink="http://www.w3.org/1999/xlink">
    <!-- Generator: sketchtool 52.5 (67469) - http://www.bohemiancoding.com/sketch -->
    <title>BAB519D7-2E7B-4B88-AE8F-A5BCF897EE0B</title>
    <desc>Created with sketchtool.</desc>
    <g id="Page-1" stroke="none" stroke-width="1" fill="none" fill-rule="evenodd">
        <g id="List_View" transform="translate(-1212.000000, -646.000000)" fill="#ff532d" fill-rule="nonzero">
            <g id="Group-3-Copy-6" transform="translate(432.000000, 481.000000)">
                <g id="Group-5" transform="translate(701.000000, 153.000000)">
                    <g id="cart" transform="translate(79.000000, 12.000000)">
                        <path d="M23.8288034,4.60365046 C23.6839984,4.4185622 23.4656093,4.30598385 23.2309994,4.29534906 L4.28668435,3.43414617 C4.2718601,3.43350164 4.25735812,3.43317937 4.24242645,3.43339422 C4.13027779,3.06525872 3.89330466,2.74600027 3.5725423,2.53201547 L1.25254744,0.985352231 C0.882370923,0.738603692 0.382106254,0.838613657 0.135357715,1.2088976 C-0.111390823,1.57918154 -0.0113808583,2.07933879 0.358795661,2.32608732 L2.6786831,3.87253572 C2.68964015,3.87984042 2.69769681,3.8909049 2.70134916,3.9035807 L5.65642341,14.2462869 C5.74859156,14.568768 5.90027155,14.8585928 6.0950278,15.1088862 L5.01382447,17.2712929 C4.75354075,17.7917529 4.78082596,18.3979358 5.08676407,18.8929367 C5.19773109,19.0724391 5.33845402,19.2253007 5.50012427,19.3477619 C5.28850275,19.7171864 5.16679352,20.1445115 5.16679352,20.5999812 C5.16679352,21.9938902 6.30084852,23.1278378 7.69465012,23.1278378 C9.08845173,23.1278378 10.2225067,21.9937828 10.2225067,20.5999812 C10.2225067,20.2767481 10.1608464,19.9678022 10.049772,19.6834559 L17.3949722,19.6834559 C17.2838978,19.9678022 17.2222375,20.2767481 17.2222375,20.5999812 C17.2222375,21.9938902 18.3562925,23.1278378 19.7500941,23.1278378 C21.1438957,23.1278378 22.2779507,21.9937828 22.2779507,20.5999812 C22.2779507,20.1956444 22.1820227,19.8135441 22.0125107,19.4743051 C22.1751477,19.326922 22.2779507,19.1146559 22.2779507,18.8777902 C22.2779507,18.4328479 21.9173347,18.0721246 21.472285,18.0721246 L6.50430596,18.0721246 C6.49281179,18.0721246 6.47336839,18.0721246 6.45714766,18.0458062 C6.44092692,18.0195952 6.44962811,18.0023002 6.45478437,17.9918803 L7.45080198,15.9999525 C7.65350746,16.0520522 7.86469929,16.0801968 8.08083254,16.0801968 C8.18041281,16.0801968 8.28095989,16.0742886 8.3821515,16.0624721 L19.7029358,14.7306531 C21.1650578,14.5585629 22.3414371,13.4731701 22.6301877,12.0294172 L23.9843506,5.25817325 C24.0304346,5.02775287 23.9736084,4.78873872 23.8288034,4.60365046 Z M19.7498792,19.6836707 C20.2553002,19.6836707 20.6664045,20.0948825 20.6664045,20.600196 C20.6664045,21.1056169 20.2553002,21.5167213 19.7498792,21.5167213 C19.2444583,21.5167213 18.833354,21.1056169 18.833354,20.600196 C18.833354,20.0947751 19.2444583,19.6836707 19.7498792,19.6836707 Z M7.69443528,19.6836707 C8.19985621,19.6836707 8.61096054,20.0947751 8.61096054,20.600196 C8.61096054,21.1056169 8.19985621,21.5167213 7.69443528,21.5167213 C7.18901435,21.5167213 6.77791002,21.1056169 6.77791002,20.600196 C6.77791002,20.0947751 7.18901435,19.6836707 7.69443528,19.6836707 Z M5.71872822,8.60007444 L4.709068,5.06642482 L7.93011934,5.21284112 L8.48860679,8.60007444 L5.71872822,8.60007444 Z M8.193948,14.4622053 C7.74470882,14.5150569 7.32952244,14.2380154 7.20555735,13.8037079 L6.17913929,10.2114058 L8.75426161,10.2114058 L9.4311282,14.3166483 L8.193948,14.4622053 Z M12.9165453,13.9066182 L11.0332212,14.12823 L10.3875071,10.2115132 L12.9165453,10.2115132 L12.9165453,13.9066182 Z M12.9165453,8.60007444 L10.1217448,8.60007444 L9.57561091,5.28771432 L12.9165453,5.43960916 L12.9165453,8.60007444 Z M16.9966511,13.4265489 L14.5278766,13.7170182 L14.5278766,10.2114058 L17.2876575,10.2114058 L16.9966511,13.4265489 Z M17.4335367,8.60007444 L14.5278766,8.60007444 L14.5278766,5.5127636 L17.6999435,5.65692404 L17.4335367,8.60007444 Z M21.0500088,11.7135963 C20.8985436,12.4707072 20.2815111,13.0401516 19.5146249,13.1303862 L18.6319375,13.2342634 L18.9055416,10.2115132 L21.3503609,10.2115132 L21.0500088,11.7135963 Z M21.6727346,8.60007444 L19.0515282,8.60007444 L19.3112748,5.73018591 L22.220265,5.8624225 L21.6727346,8.60007444 Z" id="Shape"></path>
                    </g>
                </g>
            </g>
        </g>
    </g>
</svg>