<?xml version="1.0" encoding="UTF-8"?>
<svg width="24px" height="24px" viewBox="0 0 24 24" version="1.1" xmlns="http://www.w3.org/2000/svg" xmlns:xlink="http://www.w3.org/1999/xlink">
    <!-- Generator: sketchtool 52.5 (67469) - http://www.bohemiancoding.com/sketch -->
    <title>FCC1B107-38DD-4B49-AE64-8872BE0CCA35</title>
    <desc>Created with sketchtool.</desc>
    <g id="Page-1" stroke="none" stroke-width="1" fill="none" fill-rule="evenodd">
        <g id="List_View" transform="translate(-1212.000000, -144.000000)" fill="#FF532D" fill-rule="nonzero">
            <path d="M1214,144 L1217,144 C1218.10457,144 1219,144.895431 1219,146 L1219,148 C1219,149.104569 1218.10457,150 1217,150 L1214,150 C1212.89543,150 1212,149.104569 1212,148 L1212,146 C1212,144.895431 1212.89543,144 1214,144 Z M1214,153 L1217,153 C1218.10457,153 1219,153.895431 1219,155 L1219,157 C1219,158.104569 1218.10457,159 1217,159 L1214,159 C1212.89543,159 1212,158.104569 1212,157 L1212,155 C1212,153.895431 1212.89543,153 1214,153 Z M1214,162 L1217,162 C1218.10457,162 1219,162.895431 1219,164 L1219,166 C1219,167.104569 1218.10457,168 1217,168 L1214,168 C1212.89543,168 1212,167.104569 1212,166 L1212,164 C1212,162.895431 1212.89543,162 1214,162 Z M1223,144 L1234,144 C1235.10457,144 1236,144.895431 1236,146 L1236,148 C1236,149.104569 1235.10457,150 1234,150 L1223,150 C1221.89543,150 1221,149.104569 1221,148 L1221,146 C1221,144.895431 1221.89543,144 1223,144 Z M1223,153 L1234,153 C1235.10457,153 1236,153.895431 1236,155 L1236,157 C1236,158.104569 1235.10457,159 1234,159 L1223,159 C1221.89543,159 1221,158.104569 1221,157 L1221,155 C1221,153.895431 1221.89543,153 1223,153 Z M1223,162 L1234,162 C1235.10457,162 1236,162.895431 1236,164 L1236,166 C1236,167.104569 1235.10457,168 1234,168 L1223,168 C1221.89543,168 1221,167.104569 1221,166 L1221,164 C1221,162.895431 1221.89543,162 1223,162 Z" id="Combined-Shape"></path>
        </g>
    </g>
</svg>