<?xml version="1.0" encoding="UTF-8"?>
<svg width="24px" height="24px" viewBox="0 0 24 24" version="1.1" xmlns="http://www.w3.org/2000/svg" xmlns:xlink="http://www.w3.org/1999/xlink">
    <!-- Generator: sketchtool 52.5 (67469) - http://www.bohemiancoding.com/sketch -->
    <title>E786BBC6-C6D4-497D-AA1E-E3DC27B65405</title>
    <desc>Created with sketchtool.</desc>
    <g id="Page-1" stroke="none" stroke-width="1" fill="none" fill-rule="evenodd">
        <g id="Main-Page" transform="translate(-1212.000000, -712.000000)" fill="#D0D0D0" fill-rule="nonzero">
            <path d="M1214,712 L1217,712 C1218.10457,712 1219,712.895431 1219,714 L1219,716 C1219,717.104569 1218.10457,718 1217,718 L1214,718 C1212.89543,718 1212,717.104569 1212,716 L1212,714 C1212,712.895431 1212.89543,712 1214,712 Z M1214,721 L1217,721 C1218.10457,721 1219,721.895431 1219,723 L1219,725 C1219,726.104569 1218.10457,727 1217,727 L1214,727 C1212.89543,727 1212,726.104569 1212,725 L1212,723 C1212,721.895431 1212.89543,721 1214,721 Z M1214,730 L1217,730 C1218.10457,730 1219,730.895431 1219,732 L1219,734 C1219,735.104569 1218.10457,736 1217,736 L1214,736 C1212.89543,736 1212,735.104569 1212,734 L1212,732 C1212,730.895431 1212.89543,730 1214,730 Z M1223,712 L1234,712 C1235.10457,712 1236,712.895431 1236,714 L1236,716 C1236,717.104569 1235.10457,718 1234,718 L1223,718 C1221.89543,718 1221,717.104569 1221,716 L1221,714 C1221,712.895431 1221.89543,712 1223,712 Z M1223,721 L1234,721 C1235.10457,721 1236,721.895431 1236,723 L1236,725 C1236,726.104569 1235.10457,727 1234,727 L1223,727 C1221.89543,727 1221,726.104569 1221,725 L1221,723 C1221,721.895431 1221.89543,721 1223,721 Z M1223,730 L1234,730 C1235.10457,730 1236,730.895431 1236,732 L1236,734 C1236,735.104569 1235.10457,736 1234,736 L1223,736 C1221.89543,736 1221,735.104569 1221,734 L1221,732 C1221,730.895431 1221.89543,730 1223,730 Z" id="Combined-Shape"></path>
        </g>
    </g>
</svg>