<?xml version="1.0" encoding="UTF-8"?>
<svg width="196px" height="48px" viewBox="0 0 196 48" version="1.1" xmlns="http://www.w3.org/2000/svg" xmlns:xlink="http://www.w3.org/1999/xlink">
    <!-- Generator: sketchtool 52.5 (67469) - http://www.bohemiancoding.com/sketch -->
    <title>338575A4-6FA2-4A2E-88DD-A23EC06F7FF3</title>
    <desc>Created with sketchtool.</desc>
    <g id="Page-1" stroke="none" stroke-width="1" fill="none" fill-rule="evenodd">
        <g id="Main-Page" transform="translate(-132.000000, -32.000000)" fill="#121212" fill-rule="nonzero">
            <path d="M170.204398,32.7812836 C170.761475,33.3162389 171.06805,34.0365675 171.068414,34.8098078 L171.068414,78.8987344 C171.068414,79.6329296 170.219326,80.0861454 169.611275,79.67088 L165.230027,76.6786336 L165.230027,77.077843 C165.230027,78.5808995 164.009554,79.8040714 162.509815,79.8040714 C161.009712,79.8040714 159.789604,78.5808995 159.789604,77.077843 L159.789604,72.9635041 L159.685471,72.8923471 L153.301294,68.532425 C153.30093,68.532425 153.30093,68.5320601 153.300565,68.5320601 L152.528668,68.004768 L152.528668,69.8304032 C152.528668,71.3334597 151.308195,72.5562667 149.808456,72.5562667 C148.308353,72.5562667 147.088245,71.3334597 147.088245,69.8304032 L147.088245,64.2892737 L144.648028,62.6231033 L144.648028,73.3419139 C144.648028,74.8453353 143.427556,76.0681423 141.927817,76.0681423 C140.428078,76.0681423 139.207606,74.8453353 139.207606,73.3419139 L139.207606,68.330266 C139.207606,67.8142859 139.624867,67.3961012 140.139709,67.3961012 C140.65455,67.3961012 141.072176,67.8142859 141.072176,68.330266 L141.072176,73.3419139 C141.072176,73.8148348 141.45594,74.1998128 141.927817,74.1998128 C142.399694,74.1998128 142.783822,73.8151997 142.783822,73.3419139 L142.783822,60.8558533 C142.783822,60.5099204 142.974612,60.1917206 143.280094,60.0300664 C143.585577,59.8680471 143.955505,59.8892118 144.240597,60.0840727 L148.545384,63.0234074 C148.799892,63.1974687 148.952451,63.4864759 148.952451,63.795553 L148.952451,69.8304032 C148.952451,70.3029592 149.336579,70.6879372 149.808456,70.6879372 C150.280333,70.6879372 150.664098,70.3033241 150.664098,69.8304032 L150.664098,66.237518 C150.664098,65.8915851 150.855251,65.5737502 151.160734,65.4117309 C151.466216,65.2500767 151.83578,65.2708765 152.121237,65.4657374 L153.382853,66.3272854 C153.920268,65.3223285 154.78574,64.5093132 155.8471,64.0517185 C158.414024,62.9449522 161.400759,64.1374719 162.504718,66.7097091 C163.301375,68.5652668 162.906323,70.6934109 161.593733,72.1395417 C161.632692,72.2435405 161.65381,72.3552024 161.65381,72.4697835 L161.65381,77.077843 C161.65381,77.5507639 162.037938,77.935742 162.509815,77.935742 C162.981692,77.935742 163.365821,77.5511288 163.365821,77.077843 L163.365821,74.9121134 C163.365821,74.5658156 163.556975,74.2479806 163.862093,74.0859615 C164.167575,73.9239423 164.537139,73.945107 164.82296,74.1399679 L169.203844,77.1318494 L169.203844,73.3605241 C168.387161,73.0802747 167.646941,72.5902031 167.071294,71.9450456 C165.890873,70.6222538 165.481258,68.7258264 166.016489,67.0330177 C166.500017,65.5040528 167.690269,64.2790562 169.203844,63.7586973 L169.203844,40.2732119 C167.934582,40.3038642 166.666776,40.3969157 165.406617,40.5530964 C165.495094,40.7111016 165.576289,40.8731208 165.647653,41.0398838 C166.18252,42.286045 166.201453,43.6661274 165.700448,44.92652 C165.199442,46.1865476 164.238939,47.1758135 162.995528,47.7122284 C162.352523,47.9891937 161.673471,48.1282237 160.993692,48.1282237 C160.359425,48.1282237 159.72443,48.0074391 159.11747,47.7647752 C157.85986,47.2630266 156.872777,46.3000341 156.33791,45.0538729 C156.052454,44.3886455 155.915551,43.6854676 155.924654,42.9819247 C155.755346,43.0494327 155.586402,43.1180354 155.418187,43.1873679 C154.075376,43.7420282 152.759509,44.3718597 151.490975,45.0805113 C150.224626,45.7873382 148.995415,46.5565645 147.813537,47.3976777 C146.676081,48.2074088 145.586685,49.0809987 144.540618,50.0056759 C143.453771,50.9664789 142.424089,51.9962496 141.457396,53.0774722 C140.516919,54.1291374 139.632149,55.2282406 138.810005,56.3751468 L140.664745,57.6417428 C140.919252,57.8158039 141.071812,58.1048111 141.071812,58.4138883 L141.071812,60.8565832 C141.071812,61.3725632 140.65455,61.7907479 140.139709,61.7907479 C139.624867,61.7907479 139.207606,61.3725632 139.207606,60.8565832 L139.207606,58.9076089 L136.979297,57.3859422 C136.979297,57.3859422 136.978933,57.3855773 136.978933,57.3855773 L133.225762,54.8224628 C132.587854,54.3867625 132.166587,53.7262789 132.039151,52.9628911 C131.912079,52.1998683 132.096679,51.438305 132.558726,50.819056 C136.696389,45.2713581 142.116058,40.6297271 148.231527,37.3959115 C154.348089,34.1613661 161.234728,32.2966857 168.14649,32.0025698 C168.916931,31.970093 169.647685,32.2463284 170.204398,32.7812836 Z M154.933566,67.3862487 L156.703105,68.5948243 L160.151886,70.9499413 C161.033379,70.0362114 161.308641,68.6513851 160.792343,67.4479182 C160.093994,65.8218877 158.206485,65.0683524 156.58368,65.7678813 C155.837997,66.0893654 155.259074,66.6633658 154.933566,67.3862487 Z M133.878234,52.6556385 C133.920834,52.911439 134.062106,53.1325734 134.27547,53.2781717 L137.267666,55.3216571 C137.383815,55.1596379 137.50142,54.9983485 137.620118,54.8377889 C138.568241,53.5544071 139.587729,52.319923 140.68295,51.1591504 C141.798561,49.977213 142.976069,48.8536609 144.224213,47.8125781 C145.461434,46.7809829 146.755819,45.8227343 148.103363,44.9403865 C149.473482,44.0434424 150.903313,43.2264131 152.376473,42.5119231 C153.82815,41.8072855 155.318787,41.1676017 156.842557,40.6359305 C158.996224,39.8842199 161.231087,39.3135035 163.484882,38.9394727 C163.903965,38.8701403 164.32596,38.8106602 164.747227,38.7537345 C166.224391,38.5552245 167.713207,38.4369943 169.20348,38.4030579 L169.20348,34.8094429 C169.20348,34.5507231 169.100803,34.3095188 168.914382,34.129984 C168.737792,33.9603017 168.508772,33.8683449 168.266279,33.8683449 C168.252808,33.8683449 168.238972,33.8687098 168.225136,33.8694396 C161.587907,34.1515136 154.975438,35.9421176 149.101369,39.0482154 C143.22912,42.1535833 138.025,46.6105709 134.051911,51.9374993 C133.897532,52.1451321 133.835634,52.3998379 133.878234,52.6556385 Z M163.968411,44.2346542 C164.284816,43.4380598 164.273165,42.5659295 163.934913,41.7780929 C163.788908,41.4372688 163.590472,41.1318406 163.342882,40.8654577 C162.946375,40.9366148 162.551323,41.01507 162.156636,41.0971743 C160.71224,41.3978586 159.284958,41.7930541 157.886439,42.2630557 C157.713854,42.9439743 157.768834,43.6591942 158.050285,44.3152989 C158.388537,45.1031355 159.012609,45.7118022 159.807445,46.0289073 C160.602281,46.3463774 161.472487,46.3343354 162.258585,45.9957007 C163.044682,45.6567011 163.651641,45.0312486 163.968411,44.2346542 Z M167.907274,69.8285786 C168.177802,70.4587749 168.634387,70.9732954 169.203844,71.3144844 L169.203844,65.8054668 C168.602346,66.1649013 168.137387,66.7089793 167.873777,67.3720174 C167.557371,68.1686117 167.569023,69.041107 167.907274,69.8285786 Z M147.395912,59.6162605 C146.138301,59.114147 145.151218,58.1515194 144.616351,56.9053583 C144.081485,55.6591971 144.062551,54.2787497 144.563557,53.018722 C145.064562,51.7583294 146.025065,50.7690636 147.268476,50.2330136 C148.511886,49.6965987 149.889287,49.6779884 151.146534,50.1801019 C152.404145,50.6818506 153.391227,51.6448431 153.926094,52.8910042 C155.030417,55.4632414 153.84053,58.4565826 151.27397,59.5633489 C150.630964,59.840679 149.951913,59.9793441 149.272133,59.9793441 C148.637866,59.9793441 148.002871,59.8585595 147.395912,59.6162605 Z M146.295593,53.7102229 C145.978824,54.5064524 145.990839,55.3789476 146.329091,56.1667843 C146.666978,56.9542559 147.29105,57.5629226 148.085886,57.8803927 C148.880722,58.1974978 149.751292,58.1858208 150.537026,57.8468212 C152.159467,57.1472923 152.911704,55.2552438 152.213719,53.6292133 C151.875467,52.8417416 151.251395,52.2330749 150.456559,51.9159697 C150.072795,51.7627084 149.671554,51.6860777 149.270676,51.6860777 C148.841035,51.6860777 148.411758,51.7740205 148.00542,51.9491764 C147.219322,52.2881761 146.611998,52.9136285 146.295593,53.7102229 Z M161.203415,61.5305685 C159.945804,61.0288198 158.958722,60.0658273 158.423855,58.8196661 C157.888988,57.5735049 157.870419,56.1934225 158.37106,54.93303 C158.872065,53.6726374 159.832932,52.6833715 161.076343,52.1473215 C162.31939,51.6112715 163.69679,51.5922963 164.954401,52.0944099 C166.211648,52.5965234 167.19873,53.5595158 167.733597,54.8053121 C168.268828,56.0518382 168.287397,57.4319207 167.786392,58.6923132 C167.285387,59.9523409 166.324884,60.9416067 165.081473,61.4776567 C164.438468,61.7549869 163.759416,61.8940168 163.079636,61.8940168 C162.445369,61.8940168 161.810374,61.7732323 161.203415,61.5305685 Z M160.103096,55.6245308 C159.786691,56.4211252 159.798342,57.2936205 160.13623,58.081457 C160.474481,58.8689287 161.098553,59.4775954 161.893389,59.7947006 C162.688226,60.1121707 163.558795,60.1001287 164.344529,59.761494 C165.130627,59.4224943 165.737586,58.7970419 166.054355,58.0008123 C166.371125,57.204218 166.359109,56.3317227 166.021222,55.5438861 C165.682971,54.7564144 165.058899,54.1477478 164.264062,53.8302777 C163.880298,53.6770163 163.479057,53.6007505 163.07818,53.6007505 C162.648539,53.6007505 162.219261,53.6886933 161.812923,53.8638492 C161.026825,54.2028488 160.419502,54.8279365 160.103096,55.6245308 Z M140.140437,65.5281367 C139.703513,65.5281367 139.3172,65.2113964 139.227995,64.7833592 C139.148257,64.399111 139.324118,63.9929682 139.661278,63.7926337 C139.987149,63.5988675 140.405868,63.6218567 140.707709,63.8517489 C141.022294,64.0914935 141.149729,64.5228149 141.021565,64.8961158 C140.893765,65.268687 140.53476,65.5281367 140.140437,65.5281367 Z M188.162186,57.8401177 C190.96,57.8401177 193.152284,58.5097203 194.739104,59.8489456 C196.325924,61.1881708 197.119322,63.0295779 197.119322,65.3732222 C197.119322,67.7168664 196.325924,69.5530422 194.739104,70.8818048 C193.152284,72.2105674 190.96,72.8749387 188.162186,72.8749387 L182.274278,72.8749387 L182.274278,79.8116724 L179.956697,79.8116724 L179.956697,57.8401177 L188.162186,57.8401177 Z M188.099549,70.8347229 C190.270987,70.8347229 191.930859,70.3586773 193.079215,69.4065718 C194.227572,68.4544664 194.801742,67.1100299 194.801742,65.3732222 C194.801742,63.5945636 194.227572,62.2292021 193.079215,61.2770966 C191.930859,60.3249912 190.270987,59.8489456 188.099549,59.8489456 L182.274278,59.8489456 L182.274278,70.8347229 L188.099549,70.8347229 Z M201.253386,63.3016184 L203.47701,63.3016184 L203.47701,79.8116724 L201.253386,79.8116724 L201.253386,63.3016184 Z M202.380857,59.6920059 C201.921515,59.6920059 201.535255,59.5350678 201.222067,59.2211869 C200.908879,58.9073059 200.752287,58.5306545 200.752287,58.0912212 C200.752287,57.6727133 200.908879,57.3065244 201.222067,56.9926435 C201.535255,56.6787625 201.921515,56.5218244 202.380857,56.5218244 C202.8402,56.5218244 203.22646,56.6735313 203.539648,56.9769495 C203.852836,57.2803677 204.009428,57.6413254 204.009428,58.0598333 C204.009428,58.5201919 203.852836,58.9073059 203.539648,59.2211869 C203.22646,59.5350678 202.8402,59.6920059 202.380857,59.6920059 Z M221.297328,77.9597842 L221.297328,79.8116724 L207.892941,79.8116724 L207.892941,78.3364394 L218.259418,65.1848946 L208.080853,65.1848946 L208.080853,63.3016184 L221.109416,63.3016184 L221.109416,64.7768514 L210.742939,77.9597842 L221.297328,77.9597842 Z M237.301162,77.9597842 L237.301162,79.8116724 L223.896776,79.8116724 L223.896776,78.3364394 L234.263253,65.1848946 L224.084688,65.1848946 L224.084688,63.3016184 L237.113251,63.3016184 L237.113251,64.7768514 L226.746774,77.9597842 L237.301162,77.9597842 Z M247.448408,63.1760667 C249.598967,63.1760667 251.2484,63.7148875 252.396756,64.7925454 C253.545113,65.8702032 254.119283,67.4657406 254.119283,69.5792055 L254.119283,79.8116724 L251.989614,79.8116724 L251.989614,77.2378617 C251.488513,78.0958029 250.752532,78.7654055 249.781648,79.2466896 C248.810765,79.7279736 247.657206,79.9686121 246.320936,79.9686121 C244.483566,79.9686121 243.022043,79.5291854 241.936324,78.6503188 C240.850605,77.7714522 240.307754,76.6101102 240.307754,75.166258 C240.307754,73.7642565 240.814067,72.6343021 241.826709,71.776361 C242.83935,70.9184198 244.452245,70.4894556 246.665442,70.4894556 L251.895658,70.4894556 L251.895658,69.4850417 C251.895658,68.0621148 251.498959,66.9792419 250.705549,66.2363904 C249.912139,65.4935389 248.75336,65.1221187 247.229177,65.1221187 C246.185217,65.1221187 245.18303,65.2947506 244.222586,65.6400196 C243.262142,65.9852886 242.437426,66.4613342 241.748412,67.0681707 L240.746215,65.4046101 C241.581383,64.6931467 242.58357,64.1438633 243.752806,63.7567435 C244.922042,63.3696237 246.153897,63.1760667 247.448408,63.1760667 Z M246.665442,78.2108877 C247.918194,78.2108877 248.993457,77.9231678 249.891264,77.3477195 C250.78907,76.7722711 251.457194,75.9404991 251.895658,74.8523786 L251.895658,72.1530162 L246.728079,72.1530162 C243.909385,72.1530162 242.50006,73.136495 242.50006,75.1034821 C242.50006,76.0660503 242.865441,76.8245844 243.596213,77.3791074 C244.326985,77.9336304 245.350051,78.2108877 246.665442,78.2108877 Z M266.678065,80 C265.049487,80 263.488789,79.7384365 261.995925,79.2153016 C260.503062,78.6921667 259.349503,78.0016391 258.535214,77.1436979 L259.443455,75.3545856 C260.236865,76.1497506 261.291249,76.7931968 262.606639,77.2849436 C263.92203,77.7766904 265.279158,78.0225601 266.678065,78.0225601 C268.640711,78.0225601 270.112673,77.6616024 271.093996,76.9396763 C272.075319,76.2177502 272.565973,75.2813528 272.565973,74.1304561 C272.565973,73.2515895 272.299767,72.5505993 271.767347,72.0274644 C271.234927,71.5043296 270.582462,71.1015218 269.809931,70.8190289 C269.0374,70.5365361 267.962137,70.2278912 266.584109,69.8930848 C264.934651,69.4745769 263.619281,69.0717691 262.637958,68.6846493 C261.656635,68.2975295 260.816259,67.706396 260.116806,66.911231 C259.417352,66.116066 259.067631,65.0384243 259.067631,63.6782737 C259.067631,62.5692277 259.359935,61.5595926 259.944553,60.6493379 C260.529171,59.7390832 261.426964,59.0119367 262.637958,58.4678764 C263.848952,57.9238161 265.352233,57.6517901 267.147845,57.6517901 C268.400597,57.6517901 269.627233,57.824422 270.827787,58.169691 C272.028342,58.51496 273.067067,58.9910056 273.943994,59.5978421 L273.161027,61.4497303 C272.242342,60.8428938 271.261034,60.3877733 270.217073,60.0843551 C269.173113,59.7809369 268.150047,59.62923 267.147845,59.62923 C265.226957,59.62923 263.781094,60.0006502 262.810211,60.7435017 C261.839327,61.4863532 261.353893,62.4436757 261.353893,63.6154978 C261.353893,64.4943644 261.620099,65.2005859 262.152519,65.7341834 C262.684939,66.267781 263.353063,66.6758201 264.156913,66.9583129 C264.960762,67.2408057 266.041245,67.5494507 267.398394,67.884257 C269.006093,68.2818395 270.305805,68.6741848 271.297567,69.0613046 C272.28933,69.4484244 273.129705,70.0343266 273.818719,70.8190289 C274.507733,71.6037312 274.852235,72.6656791 274.852235,74.0049044 C274.852235,75.1139503 274.554711,76.1235854 273.959653,77.0338401 C273.364596,77.9440948 272.451144,78.6660101 271.219271,79.1996077 C269.987397,79.7332052 268.473677,80 266.678065,80 Z M279.424759,56.5218244 L281.648384,56.5218244 L281.648384,79.8116724 L279.424759,79.8116724 L279.424759,56.5218244 Z M287.849479,63.3016184 L290.073104,63.3016184 L290.073104,79.8116724 L287.849479,79.8116724 L287.849479,63.3016184 Z M288.97695,59.6920059 C288.517608,59.6920059 288.131348,59.5350678 287.81816,59.2211869 C287.504972,58.9073059 287.34838,58.5306545 287.34838,58.0912212 C287.34838,57.6727133 287.504972,57.3065244 287.81816,56.9926435 C288.131348,56.6787625 288.517608,56.5218244 288.97695,56.5218244 C289.436293,56.5218244 289.822553,56.6735313 290.135741,56.9769495 C290.448929,57.2803677 290.605521,57.6413254 290.605521,58.0598333 C290.605521,58.5201919 290.448929,58.9073059 290.135741,59.2211869 C289.822553,59.5350678 289.436293,59.6920059 288.97695,59.6920059 Z M303.101666,79.9686121 C301.473087,79.9686121 300.016784,79.6128857 298.732713,78.9014223 C297.448641,78.1899588 296.441235,77.1907862 295.710462,75.9038744 C294.97969,74.6169627 294.614309,73.1679008 294.614309,71.5566454 C294.614309,69.94539 294.97969,68.5015594 295.710462,67.2251103 C296.441235,65.9486613 297.448641,64.9547199 298.732713,64.2432565 C300.016784,63.5317931 301.473087,63.1760667 303.101666,63.1760667 C304.521452,63.1760667 305.789845,63.453324 306.906883,64.007847 C308.023921,64.5623699 308.906054,65.3732168 309.55331,66.440412 L307.893421,67.5703776 C307.350561,66.7542872 306.661558,66.1422286 305.826389,65.7341834 C304.991221,65.3261382 304.082989,65.1221187 303.101666,65.1221187 C301.911551,65.1221187 300.841507,65.3889135 299.891503,65.922511 C298.941499,66.4561086 298.200298,67.2146428 297.667878,68.1981363 C297.135459,69.1816299 296.869253,70.3011217 296.869253,71.5566454 C296.869253,72.8330945 297.135459,73.9578176 297.667878,74.9308485 C298.200298,75.9038793 298.941499,76.6571822 299.891503,77.1907798 C300.841507,77.7243774 301.911551,77.9911721 303.101666,77.9911721 C304.082989,77.9911721 304.991221,77.7923839 305.826389,77.3948014 C306.661558,76.9972189 307.350561,76.3903915 307.893421,75.5743011 L309.55331,76.7042668 C308.906054,77.7714619 308.018701,78.5823088 306.891224,79.1368318 C305.763746,79.6913547 304.500573,79.9686121 303.101666,79.9686121 Z M327.968681,72.24718 L314.188471,72.24718 C314.313746,73.9630624 314.971432,75.349349 316.161547,76.4060814 C317.351662,77.4628138 318.854942,77.9911721 320.671434,77.9911721 C321.694515,77.9911721 322.634065,77.8080777 323.490113,77.4418833 C324.346161,77.0756889 325.087362,76.536868 325.713738,75.8254046 L326.966484,77.2692496 C326.235712,78.1481162 325.32226,78.8177188 324.226102,79.2780775 C323.129943,79.7384362 321.924187,79.9686121 320.608796,79.9686121 C318.91758,79.9686121 317.419519,79.6076544 316.114569,78.8857283 C314.809618,78.1638022 313.791772,77.1646296 313.060999,75.8881805 C312.330227,74.6117314 311.964846,73.1679008 311.964846,71.5566454 C311.964846,69.94539 312.314568,68.5015594 313.014021,67.2251103 C313.713475,65.9486613 314.673904,64.9547199 315.895338,64.2432565 C317.116772,63.5317931 318.489559,63.1760667 320.013742,63.1760667 C321.537924,63.1760667 322.905492,63.5317931 324.116486,64.2432565 C325.32748,64.9547199 326.27747,65.94343 326.966484,67.2094164 C327.655498,68.4754028 328,69.9244646 328,71.5566454 L327.968681,72.24718 Z M320.013742,65.0907308 C318.426922,65.0907308 317.095892,65.598164 316.020613,66.6130456 C314.945333,67.6279273 314.334626,68.9514386 314.188471,70.5836194 L325.870331,70.5836194 C325.724177,68.9514386 325.113469,67.6279273 324.03819,66.6130456 C322.96291,65.598164 321.621441,65.0907308 320.013742,65.0907308 Z" id="Logo_pizza"></path>
        </g>
    </g>
</svg>