<?xml version="1.0" encoding="UTF-8"?>
<svg width="24px" height="24px" viewBox="0 0 24 24" version="1.1" xmlns="http://www.w3.org/2000/svg" xmlns:xlink="http://www.w3.org/1999/xlink">
    <!-- Generator: sketchtool 52.5 (67469) - http://www.bohemiancoding.com/sketch -->
    <title>73F00AFD-FF57-4635-BCDE-339352F533A5</title>
    <desc>Created with sketchtool.</desc>
    <g id="Page-1" stroke="none" stroke-width="1" fill="none" fill-rule="evenodd">
        <g id="List_View" transform="translate(-1260.000000, -144.000000)" fill="#D0D0D0" fill-rule="nonzero">
            <path d="M1262,144 L1268,144 C1269.10457,144 1270,144.895431 1270,146 L1270,152 C1270,153.104569 1269.10457,154 1268,154 L1262,154 C1260.89543,154 1260,153.104569 1260,152 L1260,146 C1260,144.895431 1260.89543,144 1262,144 Z M1276,144 L1282,144 C1283.10457,144 1284,144.895431 1284,146 L1284,152 C1284,153.104569 1283.10457,154 1282,154 L1276,154 C1274.89543,154 1274,153.104569 1274,152 L1274,146 C1274,144.895431 1274.89543,144 1276,144 Z M1262,158 L1268,158 C1269.10457,158 1270,158.895431 1270,160 L1270,166 C1270,167.104569 1269.10457,168 1268,168 L1262,168 C1260.89543,168 1260,167.104569 1260,166 L1260,160 C1260,158.895431 1260.89543,158 1262,158 Z M1276,158 L1282,158 C1283.10457,158 1284,158.895431 1284,160 L1284,166 C1284,167.104569 1283.10457,168 1282,168 L1276,168 C1274.89543,168 1274,167.104569 1274,166 L1274,160 C1274,158.895431 1274.89543,158 1276,158 Z" id="Shape"></path>
        </g>
    </g>
</svg>