<?xml version="1.0" encoding="UTF-8"?>
<svg width="24px" height="24px" viewBox="0 0 24 24" version="1.1" xmlns="http://www.w3.org/2000/svg" xmlns:xlink="http://www.w3.org/1999/xlink">
    <!-- Generator: sketchtool 52.5 (67469) - http://www.bohemiancoding.com/sketch -->
    <title>74955520-DE83-4EA6-A357-ECF484ED3F4B</title>
    <desc>Created with sketchtool.</desc>
    <g id="Page-1" stroke="none" stroke-width="1" fill="none" fill-rule="evenodd">
        <g id="Main-Page" transform="translate(-1260.000000, -712.000000)" fill="#FF532D" fill-rule="nonzero">
            <path d="M1262,712 L1268,712 C1269.10457,712 1270,712.895431 1270,714 L1270,720 C1270,721.104569 1269.10457,722 1268,722 L1262,722 C1260.89543,722 1260,721.104569 1260,720 L1260,714 C1260,712.895431 1260.89543,712 1262,712 Z M1276,712 L1282,712 C1283.10457,712 1284,712.895431 1284,714 L1284,720 C1284,721.104569 1283.10457,722 1282,722 L1276,722 C1274.89543,722 1274,721.104569 1274,720 L1274,714 C1274,712.895431 1274.89543,712 1276,712 Z M1262,726 L1268,726 C1269.10457,726 1270,726.895431 1270,728 L1270,734 C1270,735.104569 1269.10457,736 1268,736 L1262,736 C1260.89543,736 1260,735.104569 1260,734 L1260,728 C1260,726.895431 1260.89543,726 1262,726 Z M1276,726 L1282,726 C1283.10457,726 1284,726.895431 1284,728 L1284,734 C1284,735.104569 1283.10457,736 1282,736 L1276,736 C1274.89543,736 1274,735.104569 1274,734 L1274,728 C1274,726.895431 1274.89543,726 1276,726 Z" id="Shape"></path>
        </g>
    </g>
</svg>