<?xml version="1.0" encoding="UTF-8"?>
<svg width="24px" height="24px" viewBox="0 0 24 24" version="1.1" xmlns="http://www.w3.org/2000/svg" xmlns:xlink="http://www.w3.org/1999/xlink">
    <!-- Generator: sketchtool 52.5 (67469) - http://www.bohemiancoding.com/sketch -->
    <title>83A1494D-EA12-4254-A156-E72A868DBEE0</title>
    <desc>Created with sketchtool.</desc>
    <g id="Symbols" stroke="none" stroke-width="1" fill="none" fill-rule="evenodd">
        <g id="Hot">
            <g id="fire" transform="translate(2.000000, 0.000000)">
                <path d="M0.338015625,11.7046875 C0.338015625,11.7046875 1.28620312,13.0976719 3.27351563,14.2767656 C3.27351563,14.2767656 1.83421875,2.11260937 11.2121719,-5.68434189e-14 C8.8095,8.81817187 14.2684219,11.3050312 16.2583125,6.64621875 C19.5814219,11.0829844 17.0582813,14.9538281 17.0582813,14.9538281 C18.4208906,15.1501406 19.5654844,13.6614844 19.5654844,13.6614844 C19.5757031,13.8448594 19.5814219,14.0295 19.5814219,14.2154531 C19.5814688,19.6192969 15.2007656,24 9.796875,24 C4.39298437,24 0.01228125,19.6192969 0.01228125,14.2154062 C0.01228125,13.347375 0.12590625,12.5059687 0.338015625,11.7046875 Z" id="Path" fill="#FF6536"></path>
                <path d="M5.50575,19.708875 C5.50575,22.0787812 7.42696875,24 9.796875,24 C12.1667812,24 14.088,22.0787812 14.088,19.708875 C14.088,18.4403906 13.5376406,17.3004844 12.662625,16.5149062 C11.0035312,18.7688906 8.63925,15.3497812 10.4818125,12.8529375 C10.4818125,12.8529375 5.50575,13.4765156 5.50575,19.708875 Z" id="Path" fill="#FBBF00"></path>
            </g>
        </g>
    </g>
</svg>