<?xml version="1.0" encoding="UTF-8"?>
<svg width="24px" height="24px" viewBox="0 0 24 24" version="1.1" xmlns="http://www.w3.org/2000/svg" xmlns:xlink="http://www.w3.org/1999/xlink">
    <!-- Generator: sketchtool 52.5 (67469) - http://www.bohemiancoding.com/sketch -->
    <title>CFD8BEBA-F951-417C-8772-CBFA20A51B10</title>
    <desc>Created with sketchtool.</desc>
    <g id="Symbols" stroke="none" stroke-width="1" fill="none" fill-rule="evenodd">
        <g id="Meat">
            <g id="meat" transform="translate(0.000000, 2.000000)">
                <path d="M24,4.13793103 C24,1.85257272 22.1474273,0 19.862069,0 L8.27586207,0 C6.00383891,0.000404094828 3.83182919,0.93467131 2.26919452,2.58418645 C0.706761828,4.23349945 -0.109105603,6.45278824 0.0133351034,8.72157869 C0.0343480345,9.12547143 -0.0252559138,11.3003098 0.0133351034,12.0319235 C0.227101293,16.0579203 3.31115302,19.3440194 7.31553072,19.8125674 C11.3199084,20.2813174 15.0792026,17.7961342 16.2169316,13.9283405 C16.6573949,12.5212823 17.9682786,11.5694369 19.4424165,11.5862069 L19.862069,11.5862069 C22.1474273,11.5862069 24,9.73363417 24,7.44827586 L24,4.13793103 Z" id="Path" fill="#F08F84"></path>
                <path d="M8.27586207,14.8965517 C8.15705819,14.8965517 8.037042,14.893319 7.91662179,14.8870555 C4.55334052,14.6799569 1.87156521,11.9983836 1.66426453,8.63510234 C1.5656654,6.81930228 2.21807648,5.04310345 3.46854797,3.72292562 C4.7190194,2.40274784 6.45743534,1.65497038 8.27586207,1.65517241 L19.862069,1.65517241 C21.2333648,1.65517241 22.3448276,2.76683731 22.3448276,4.13793103 C22.3448276,5.50922684 21.2333648,6.62068966 19.862069,6.62068966 L19.4408001,6.62068966 C17.2344424,6.609375 15.2800377,8.04269938 14.6280307,10.1508621 C13.7865032,12.958715 11.2071659,14.8856411 8.27586207,14.8965517 Z" id="Path" fill="#E04638"></path>
                <path d="M10.3448276,8.27586207 C10.3448276,9.41844021 9.41864224,10.3448276 8.27586207,10.3448276 C7.13328393,10.3448276 6.20689655,9.41844021 6.20689655,8.27586207 C6.20689655,7.13328393 7.13328393,6.20689655 8.27586207,6.20689655 C9.41864224,6.20689655 10.3448276,7.13328393 10.3448276,8.27586207 Z" id="Path" fill="#FFFFFF"></path>
            </g>
        </g>
    </g>
</svg>