<?xml version="1.0" encoding="UTF-8"?>
<svg width="24px" height="24px" viewBox="0 0 24 24" version="1.1" xmlns="http://www.w3.org/2000/svg" xmlns:xlink="http://www.w3.org/1999/xlink">
    <!-- Generator: sketchtool 52.5 (67469) - http://www.bohemiancoding.com/sketch -->
    <title>4B378284-BC1C-4AB0-A8C9-A8867290B765</title>
    <desc>Created with sketchtool.</desc>
    <g id="Page-1" stroke="none" stroke-width="1" fill="none" fill-rule="evenodd">
        <g id="Main-Page" transform="translate(-196.000000, -877.000000)">
            <g id="Group-4" transform="translate(156.000000, 784.000000)">
                <g id="Veggie" transform="translate(40.000000, 93.000000)">
                    <g id="broccoli-3">
                        <path d="M19.06336,12.52664 C16.218,13.94936 14.62544,15.43992 13.75904,17.2988 C13.99296,14.52336 14.57104,12.15264 16,11.2 L12,11.2 L8,11.2 C9.42888,12.15264 10.00704,14.52336 10.24096,17.2988 C9.37456,15.43992 7.78208,13.94936 4.93664,12.52664 L3.86336,14.67328 C8.08648,16.78488 8.8,18.65432 8.8,23.2 L15.2,23.2 C15.2,18.65432 15.91352,16.78488 20.13664,14.67336 L19.06336,12.52664 Z" id="XMLID_893_" fill="#64C37D"></path>
                        <path d="M22.13936,9.42088 C22.30728,8.9792 22.4,8.50056 22.4,8 C22.4,5.79088 20.60912,4 18.4,4 C18.24552,4 18.09344,4.00968 17.94352,4.02664 C17.00056,1.66752 14.69568,0 12,0 C9.30424,0 6.99936,1.66752 6.05648,4.02664 C5.90656,4.00968 5.75448,4 5.6,4 C3.39088,4 1.6,5.79088 1.6,8 C1.6,8.50056 1.69272,8.9792 1.86064,9.42088 C0.74264,10.13016 0,11.378 0,12.8 C0,15.00912 1.79088,16.8 4,16.8 C5.51592,16.8 6.83488,15.95648 7.51336,14.71336 C8.45184,14.20112 9.1616,13.32352 9.45352,12.27208 C10.23408,12.61104 11.0948,12.8 12,12.8 C12.90512,12.8 13.76592,12.61104 14.54648,12.272 C14.8384,13.32352 15.54808,14.20112 16.48664,14.71336 C17.16512,15.95648 18.48408,16.8 20,16.8 C22.20912,16.8 24,15.00912 24,12.8 C24,11.378 23.25736,10.13016 22.13936,9.42088 Z" id="XMLID_895_" fill="#91DC5A"></path>
                    </g>
                </g>
            </g>
        </g>
    </g>
</svg>